<svg version="1.1" id="Layer_1" xmlns="http://www.w3.org/2000/svg" xmlns:xlink="http://www.w3.org/1999/xlink" x="0px" y="0px"
	 width="100%" viewBox="0 0 496 496" enable-background="new 0 0 496 496" xml:space="preserve">
<path fill="#000000" opacity="1.000000" stroke="none" 
	d="
M354.167297,175.658478 
	C355.486603,176.449554 356.574341,176.954269 357.442139,177.711197 
	C360.474915,180.356552 362.971497,179.900864 365.434052,176.820114 
	C366.984344,174.880615 368.809875,173.121719 370.702057,171.504272 
	C373.454803,169.151276 375.250732,170.111771 375.892273,173.473221 
	C376.139313,174.767670 376.106018,176.126022 376.107147,177.455338 
	C376.115814,187.615128 376.113007,197.774933 376.084229,207.934662 
	C376.078674,209.894882 376.413971,211.980637 374.603027,213.521500 
	C371.918854,213.227737 371.965942,210.834152 371.291077,209.099030 
	C366.787018,197.518509 360.452057,187.344879 349.590668,180.629044 
	C324.365265,165.031631 296.331268,175.853653 288.418365,204.289795 
	C286.544250,211.024628 285.186371,217.865646 285.088074,224.915817 
	C285.027161,229.286850 283.584412,231.916809 278.238770,231.485931 
	C271.647003,230.954620 264.979828,231.358932 257.222900,231.358932 
	C261.512939,210.668640 271.315186,194.265335 287.591827,182.113022 
	C308.182343,166.739944 330.416321,164.321609 354.167297,175.658478 
z"/>
<path fill="#000000" opacity="1.000000" stroke="none" 
	d="
M285.370789,279.654785 
	C286.498596,286.488525 287.713501,292.826202 289.788055,299.009369 
	C300.127228,329.825195 333.093506,329.896912 350.864136,315.627258 
	C361.190369,307.335358 367.297058,296.138031 372.846497,284.501587 
	C373.815979,282.468719 374.196625,279.960724 376.701324,278.927856 
	C379.160950,279.483673 379.073090,281.496948 379.078888,283.260620 
	C379.121613,296.251465 379.105713,309.242584 379.072571,322.233521 
	C379.068390,323.869965 379.260773,325.875305 377.364258,326.548859 
	C375.483612,327.216766 374.374969,325.516693 373.252563,324.327209 
	C369.946045,320.822876 366.674377,317.285614 363.373230,313.744232 
	C360.418152,314.494995 359.012115,316.974274 356.986847,318.581207 
	C339.156006,332.729065 315.359558,333.657501 294.940643,320.880707 
	C277.718445,310.104187 266.410126,294.677856 259.648102,275.734985 
	C257.852692,270.705475 258.490021,269.916473 263.868927,269.866150 
	C268.532043,269.822510 273.195770,269.841736 277.859222,269.837555 
	C284.662628,269.831482 284.945251,270.092957 285.278625,276.707764 
	C285.320526,277.539337 285.329529,278.372528 285.370789,279.654785 
z"/>
<path fill="#000000" opacity="1.000000" stroke="none" 
	d="
M146.317749,194.001770 
	C146.316330,205.152542 146.214890,215.805267 146.367844,226.454315 
	C146.420074,230.091949 145.168716,231.573410 141.455811,231.396835 
	C136.806335,231.175720 132.130646,231.173065 127.481056,231.391129 
	C123.673416,231.569733 122.650986,229.879547 122.680946,226.339966 
	C122.804901,211.695541 122.533249,197.045410 122.833084,182.406113 
	C122.933693,177.493820 121.320541,175.879120 116.576897,176.305374 
	C112.947739,176.631470 109.261230,176.353897 105.601379,176.284149 
	C104.388489,176.261047 103.192955,175.933929 103.077919,174.435120 
	C102.953224,172.810425 103.903488,171.982346 105.448639,171.847290 
	C106.606697,171.746048 107.774239,171.718781 108.937599,171.718079 
	C125.913086,171.707870 142.888580,171.705811 159.864059,171.709091 
	C161.028107,171.709305 162.196259,171.716827 163.355148,171.811111 
	C164.774384,171.926559 166.013840,172.359482 166.025635,174.117157 
	C166.037842,175.935547 164.728683,176.292160 163.331345,176.314468 
	C159.171814,176.380844 155.002960,176.532562 150.853134,176.332184 
	C147.321671,176.161652 146.112793,177.605515 146.276031,181.022614 
	C146.474350,185.173691 146.319458,189.341614 146.317749,194.001770 
z"/>
<path fill="#000000" opacity="1.000000" stroke="none" 
	d="
M220.962555,231.368820 
	C206.666092,231.344757 206.668793,231.344757 206.672729,217.453262 
	C206.676132,205.471085 206.545883,193.486816 206.744553,181.507950 
	C206.808960,177.624283 205.650253,176.041809 201.631927,176.319931 
	C197.658920,176.594940 193.648636,176.371506 189.655899,176.300110 
	C188.259155,176.275131 186.950012,175.936508 186.983078,174.099274 
	C187.014618,172.346680 188.233307,171.854599 189.660172,171.811584 
	C192.653091,171.721375 195.649200,171.714142 198.644012,171.712448 
	C213.455307,171.704071 228.266586,171.704559 243.077881,171.714737 
	C244.573654,171.715775 246.073669,171.748260 247.563782,171.866379 
	C248.834579,171.967117 249.803925,172.574905 249.888855,173.987457 
	C249.997360,175.792648 248.739746,176.264999 247.308075,176.290817 
	C243.149078,176.365860 238.979813,176.529419 234.831238,176.323181 
	C231.308502,176.148071 230.196854,177.558334 230.229401,180.980927 
	C230.360703,194.792465 230.287445,208.605942 230.286530,222.418716 
	C230.285873,232.414978 230.805939,231.259933 220.962555,231.368820 
z"/>
<path fill="#000000" opacity="1.000000" stroke="none" 
	d="
M245.755676,328.355774 
	C227.976334,328.363312 210.666641,328.366760 193.356949,328.362457 
	C192.026352,328.362122 190.694092,328.338684 189.365616,328.268829 
	C188.111984,328.202972 187.040009,327.810486 186.981750,326.302887 
	C186.916458,324.612823 187.952377,323.876984 189.466202,323.842010 
	C193.291809,323.753601 197.135834,323.517395 200.941971,323.780853 
	C205.226608,324.077454 206.826630,322.620483 206.753387,318.150787 
	C206.521591,304.007294 206.832535,289.854706 206.584488,275.711761 
	C206.502625,271.044647 208.121933,269.453003 212.657486,269.786774 
	C216.795792,270.091278 220.982285,270.000214 225.133408,269.796021 
	C229.035492,269.604034 230.384933,271.187500 230.339966,275.065643 
	C230.181732,288.711823 230.280304,302.360962 230.284225,316.009003 
	C230.286438,323.708862 230.288925,323.707611 238.228836,323.713501 
	C240.891815,323.715454 243.556335,323.672852 246.217178,323.751343 
	C247.859787,323.799774 249.859116,323.725922 249.880875,326.093140 
	C249.903671,328.572296 247.815399,328.181946 245.755676,328.355774 
z"/>
<path fill="#000000" opacity="1.000000" stroke="none" 
	d="
M150.995392,328.368744 
	C137.022644,328.366089 123.549309,328.364227 110.075966,328.358582 
	C108.745438,328.358002 107.412430,328.379883 106.085106,328.307800 
	C104.761032,328.235931 103.228348,328.247467 103.073997,326.434814 
	C102.906837,324.471771 104.256699,323.828430 105.925529,323.794891 
	C109.417244,323.724701 112.942886,323.427612 116.395760,323.787750 
	C121.597099,324.330292 122.915504,322.139954 122.816895,317.222046 
	C122.540192,303.421722 122.891403,289.609131 122.645454,275.807617 
	C122.562477,271.151337 124.216873,269.536163 128.720383,269.826508 
	C132.861313,270.093475 137.040878,270.027649 141.189819,269.827148 
	C145.077057,269.639252 146.423782,271.194031 146.378387,275.084839 
	C146.213455,289.221588 146.556213,303.367523 146.196091,317.496979 
	C146.062637,322.733521 147.822189,324.343903 152.749603,323.766144 
	C155.538940,323.439087 158.403183,323.605804 161.224075,323.744843 
	C163.053818,323.834961 165.784363,323.037079 165.931091,325.972382 
	C166.090027,329.151276 163.249725,328.243073 161.473114,328.324677 
	C158.153351,328.477081 154.821579,328.368469 150.995392,328.368744 
z"/>
<path fill="#000000" opacity="1.000000" stroke="none" 
	d="
M166.076035,244.684387 
	C169.531342,247.387802 168.847061,251.281174 168.489716,254.096603 
	C167.919769,258.587219 163.406174,257.080841 160.271622,257.318695 
	C157.362534,257.539459 156.494827,255.893387 156.661652,253.311478 
	C156.704361,252.650513 156.665237,251.984192 156.662506,251.320343 
	C156.628754,243.140778 157.394180,242.561966 166.076035,244.684387 
z"/>
<path fill="#000000" opacity="1.000000" stroke="none" 
	d="
M357.447571,244.170105 
	C360.075317,245.923508 361.270599,254.843430 359.418701,256.518097 
	C358.208801,257.612183 356.934814,257.194305 355.892395,256.156860 
	C354.632324,254.902802 353.452576,253.568069 352.267426,252.299667 
	C350.881866,253.097015 351.503571,254.229935 351.307190,255.122971 
	C351.076660,256.171509 350.773407,257.056671 349.477478,256.993042 
	C348.191925,256.929932 347.836884,255.971207 347.788940,254.950485 
	C347.680359,252.638184 347.610443,250.318863 347.667511,248.005920 
	C347.702148,246.602448 347.218689,244.751312 349.113525,244.203690 
	C350.835907,243.705902 351.734406,245.229767 352.721863,246.325562 
	C353.461212,247.146042 353.795135,248.417282 355.226990,248.568176 
	C356.471313,247.420486 355.316315,245.198914 357.447571,244.170105 
z"/>
<path fill="#000000" opacity="1.000000" stroke="none" 
	d="
M248.401184,246.475967 
	C248.893372,245.942947 249.115997,245.688690 249.384766,245.500244 
	C253.001663,242.964371 256.648285,242.919617 259.682465,246.187256 
	C262.261444,248.964676 262.199829,252.422760 259.725037,255.219208 
	C257.070587,258.218628 253.360214,258.285278 250.203537,256.317108 
	C246.600784,254.070847 246.048080,250.566895 248.401184,246.475967 
M252.557236,248.229248 
	C251.124664,249.738632 250.720993,251.390259 252.293823,252.974548 
	C253.334290,254.022598 254.697647,253.893860 255.922531,253.158310 
	C257.156860,252.417084 257.922089,251.253098 257.394012,249.858887 
	C256.673553,247.956848 255.277344,246.974884 252.557236,248.229248 
z"/>
<path fill="#000000" opacity="1.000000" stroke="none" 
	d="
M330.486816,244.207581 
	C331.863342,243.908478 332.882355,243.620453 333.829529,243.774429 
	C335.726105,244.082748 338.849182,242.500580 339.097443,245.672165 
	C339.322784,248.551147 335.695007,246.384354 334.472626,248.025391 
	C335.508148,249.534531 338.424774,247.948730 338.654846,250.939133 
	C338.256622,253.120468 335.612396,251.735077 334.266113,252.918045 
	C335.679779,254.798096 338.900177,252.832138 339.683929,256.080414 
	C336.896545,258.249908 333.532379,257.746552 330.623260,256.852722 
	C328.113129,256.081512 329.118317,253.158890 329.046112,251.120331 
	C328.965607,248.846756 328.520874,246.455948 330.486816,244.207581 
z"/>
<path fill="#000000" opacity="1.000000" stroke="none" 
	d="
M373.892853,257.333130 
	C370.934875,257.340454 367.953064,257.693390 368.124237,253.950897 
	C368.279968,250.545990 366.233948,246.053589 370.445923,244.175613 
	C372.685638,243.176971 376.448883,242.402115 378.473907,245.772186 
	C377.078857,247.968628 375.072479,246.884689 373.311279,247.783936 
	C374.366089,249.487732 377.529907,248.072952 377.647247,250.693436 
	C377.276978,253.227600 374.361115,251.472290 373.373871,253.122345 
	C374.842896,254.698761 378.014404,252.840454 378.661621,255.903732 
	C377.754700,257.955963 375.854706,257.083923 373.892853,257.333130 
z"/>
<path fill="#000000" opacity="1.000000" stroke="none" 
	d="
M182.816223,255.163345 
	C179.957611,254.372467 178.752365,258.270844 175.608704,256.576630 
	C175.863022,252.412888 178.337494,248.842606 180.190018,245.166763 
	C181.213318,243.136307 183.465637,243.413162 184.592407,245.370636 
	C186.613632,248.882065 188.423111,252.540878 189.251328,256.468140 
	C186.403168,258.507904 185.251266,255.117294 182.816223,255.163345 
z"/>
<path fill="#000000" opacity="1.000000" stroke="none" 
	d="
M235.460922,253.772781 
	C233.147598,251.681625 231.745911,252.190643 231.063553,254.879837 
	C230.760483,256.074310 230.228683,257.142456 228.753983,257.005981 
	C226.929565,256.837189 226.898193,255.358841 226.846848,254.034622 
	C226.776031,252.207520 226.759354,250.373611 226.831955,248.547073 
	C226.895508,246.948502 226.374954,244.855972 228.389511,244.220352 
	C230.785995,243.464218 230.604935,245.845749 231.447266,247.146317 
	C233.005661,249.552490 234.660919,249.310760 235.605789,246.542297 
	C235.988358,245.421387 236.059906,244.057159 237.621689,244.219604 
	C239.484329,244.413315 239.254089,246.052460 239.299545,247.319519 
	C239.377060,249.478973 239.385269,251.646011 239.294693,253.804489 
	C239.242599,255.046112 239.586044,256.786255 237.705276,256.933136 
	C235.868118,257.076599 235.865036,255.397339 235.460922,253.772781 
z"/>
<path fill="#000000" opacity="1.000000" stroke="none" 
	d="
M127.451553,254.883942 
	C127.304352,256.307373 126.958099,257.207001 125.637871,257.099762 
	C124.439285,257.002411 123.896614,256.165894 123.848251,255.082901 
	C123.744682,252.763138 123.670082,250.437805 123.715065,248.117294 
	C123.742630,246.695190 123.305229,244.798264 125.171379,244.287811 
	C127.438644,243.667603 127.073700,245.883652 127.732178,247.075928 
	C129.097015,249.547180 130.795517,249.242218 132.299698,247.194412 
	C132.944626,246.316467 132.509430,244.811920 133.874741,244.267960 
	C136.404266,245.864014 137.539200,255.432495 135.237839,256.726654 
	C133.298904,257.816956 132.811249,256.428314 132.268219,254.777878 
	C130.983734,250.873932 129.246475,251.327896 127.451553,254.883942 
z"/>
<path fill="#000000" opacity="1.000000" stroke="none" 
	d="
M271.689575,244.307312 
	C274.332947,246.981308 271.653381,250.885223 274.642334,253.368011 
	C279.635651,251.973618 276.069427,246.702606 279.100952,243.911331 
	C282.818176,246.072433 281.212646,249.667191 281.020203,252.495804 
	C280.805420,255.652817 278.710999,257.408112 275.287140,257.479492 
	C271.947296,257.549103 269.435120,256.119476 269.195160,252.940887 
	C268.971558,249.979340 266.389313,245.991898 271.689575,244.307312 
z"/>
<path fill="#000000" opacity="1.000000" stroke="none" 
	d="
M318.960754,257.106934 
	C318.262970,256.511017 317.740784,255.993698 317.660858,255.415253 
	C317.438721,253.808258 317.112457,252.433090 315.081818,252.423141 
	C313.469574,252.415253 312.641937,253.270401 312.396729,254.788864 
	C312.196991,256.025604 311.801270,257.188995 310.267578,256.951935 
	C308.750610,256.717468 308.670593,255.329315 308.758820,254.207764 
	C309.024994,250.824219 307.638184,247.113846 309.866028,244.197311 
	C311.902466,244.244598 312.204590,245.210037 312.408997,246.211777 
	C312.711548,247.694305 313.456635,248.620972 315.090668,248.588989 
	C316.462097,248.562119 317.227203,247.844070 317.519501,246.541977 
	C317.771851,245.417862 317.860016,244.038925 319.495361,244.205994 
	C321.352600,244.395706 321.450806,246.036255 321.220581,247.250809 
	C320.594818,250.552338 323.273499,254.504807 318.960754,257.106934 
z"/>
<path fill="#000000" opacity="1.000000" stroke="none" 
	d="
M217.840302,244.866638 
	C219.628952,247.268494 218.750610,248.372299 216.461731,247.899734 
	C213.844528,247.359360 211.466354,247.224548 211.314285,250.466293 
	C211.132553,254.339706 214.122116,253.720184 216.639511,253.451462 
	C217.525375,253.356888 218.246887,253.689377 218.832138,254.923965 
	C217.737839,258.093506 214.852615,257.395325 212.425125,257.256073 
	C209.379791,257.081390 207.685272,254.992096 206.965256,252.250656 
	C206.219070,249.409653 207.271713,246.968460 209.586624,245.256134 
	C212.033966,243.445892 214.738312,243.136902 217.840302,244.866638 
z"/>
<path fill="#000000" opacity="1.000000" stroke="none" 
	d="
M292.786530,249.562927 
	C292.538910,255.997101 297.998169,252.308945 300.559601,254.274139 
	C299.712067,258.293335 296.532166,257.489044 294.052948,257.194519 
	C290.374237,256.757568 288.681976,254.220703 288.706818,250.591354 
	C288.733978,246.621536 291.070801,244.497879 294.720154,243.861847 
	C297.428497,243.389816 299.727570,244.137238 300.978027,247.156876 
	C298.128204,248.950851 294.643799,245.682373 292.786530,249.562927 
z"/>
<path fill="#000000" opacity="1.000000" stroke="none" 
	d="
M144.917816,245.533356 
	C145.738113,244.167221 146.634308,243.848877 147.515213,244.702728 
	C148.619186,245.772842 148.660736,255.137451 147.694305,256.282043 
	C147.210510,256.855011 146.636673,257.029358 145.949524,256.825409 
	C144.984985,256.539124 144.782700,255.684906 144.772049,254.879715 
	C144.732712,251.906876 144.778168,248.932892 144.917816,245.533356 
z"/>
</svg>